<?xml version="1.0" encoding="UTF-8"?>
<svg id="Layer_1" data-name="Layer 1" xmlns="http://www.w3.org/2000/svg" viewBox="0 0 201.24 176.8">
  <defs>
    <style>
      .cls-1 {
        fill: #7a0019;
        stroke-width: 0px;
      }
    </style>
  </defs>
  <g>
    <polyline class="cls-1" points="158.89 86.32 133.33 43.83 140.37 43.83 140.37 21.69 97.82 21.69 97.82 43.83 104.86 43.83 95.1 60.07 85.34 43.84 92.37 43.84 92.37 21.69 49.83 21.69 49.83 43.83 56.86 43.83 31.31 86.32 22.18 86.32 22.18 108.47 65.58 108.47 65.58 86.32 57.79 86.32 71.1 64.18 76.26 72.77 71.31 72.77 71.31 94.91 118.88 94.91 118.88 72.77 113.93 72.77 119.09 64.19 132.41 86.33 124.61 86.33 124.61 108.47 168 108.47 168 86.32 158.89 86.32"/>
    <path class="cls-1" d="M172.4,105.22c0-1.94,1.57-3.51,3.51-3.51s3.51,1.57,3.51,3.51-1.56,3.51-3.51,3.51-3.51-1.57-3.51-3.51ZM178.43,105.22c0-1.39-1.13-2.52-2.52-2.52s-2.52,1.13-2.52,2.52,1.13,2.52,2.52,2.52,2.52-1.13,2.52-2.52ZM174.61,103.56h1.54c.76,0,1.21.43,1.21,1.1,0,.42-.18.73-.5.9l.58,1.24h-1.02l-.46-1.08h-.43v1.08h-.93v-3.24ZM175.97,105.05c.28,0,.43-.14.43-.39,0-.27-.15-.41-.43-.41h-.44v.81h.44Z"/>
  </g>
  <g>
    <path class="cls-1" d="M42.93,142.32c0,4.08-1.12,7.22-3.37,9.43-2.25,2.21-5.4,3.31-9.47,3.31h-7.91v-24.44h8.46c3.92,0,6.95,1,9.09,3.01,2.13,2.01,3.2,4.9,3.2,8.69ZM36.08,142.55c0-2.24-.44-3.9-1.33-4.98-.89-1.08-2.23-1.62-4.04-1.62h-1.92v13.69h1.47c2.01,0,3.48-.58,4.41-1.75.94-1.17,1.4-2.95,1.4-5.34Z"/>
    <path class="cls-1" d="M69.91,130.61v14.71c0,3.2-.91,5.68-2.72,7.43-1.81,1.76-4.42,2.63-7.83,2.63s-5.89-.85-7.68-2.56c-1.79-1.71-2.68-4.16-2.68-7.36v-14.86h6.64v14.34c0,1.73.32,2.98.97,3.76.65.78,1.6,1.17,2.86,1.17,1.35,0,2.33-.39,2.93-1.16.61-.77.91-2.04.91-3.8v-14.31h6.6Z"/>
    <path class="cls-1" d="M76.85,155.05v-24.44h6.6v19.11h9.41v5.33h-16.02Z"/>
    <path class="cls-1" d="M118,130.61v14.71c0,3.2-.91,5.68-2.72,7.43-1.81,1.76-4.42,2.63-7.83,2.63s-5.89-.85-7.68-2.56c-1.79-1.71-2.68-4.16-2.68-7.36v-14.86h6.64v14.34c0,1.73.32,2.98.97,3.76.65.78,1.6,1.17,2.86,1.17,1.35,0,2.33-.39,2.93-1.16s.91-2.04.91-3.8v-14.31h6.6Z"/>
    <path class="cls-1" d="M135.73,155.05h-6.6v-19.04h-5.97v-5.4h18.52v5.4h-5.95v19.04Z"/>
    <path class="cls-1" d="M167.94,155.05h-6.64v-9.96h-7.67v9.96h-6.64v-24.44h6.64v9.06h7.67v-9.06h6.64v24.44Z"/>
  </g>
</svg>